<svg width="64" height="45" viewBox="0 0 64 45" fill="none" xmlns="http://www.w3.org/2000/svg">
<path opacity="0.1" d="M13.9849 5.75909L11.3158 6.10416L11.0038 3.13784C11.3543 3.09204 11.7093 3.12351 12.0488 3.23046C12.3883 3.33741 12.7055 3.51775 12.9823 3.76117C13.2592 4.00459 13.4902 4.30632 13.6622 4.64913C13.8343 4.99194 13.9439 5.36911 13.9849 5.75909Z" fill="#141414"/>
<path d="M58.739 16.3979H47.942C46.8374 16.3979 45.942 17.2933 45.942 18.3979V22.7543C45.942 23.8589 46.8374 24.7543 47.942 24.7543H58.739C59.8436 24.7543 60.739 23.8589 60.739 22.7543V18.3979C60.739 17.2933 59.8436 16.3979 58.739 16.3979Z" fill="#00B140"/>
<path d="M59.0432 21.0026C59.2554 19.9979 58.6957 18.992 57.7929 18.7558C56.8901 18.5196 55.9862 19.1426 55.7739 20.1473C55.5617 21.152 56.1215 22.1579 57.0243 22.3941C57.9271 22.6303 58.831 22.0073 59.0432 21.0026Z" fill="#D0D0D0"/>
<path d="M57.4106 21.5989C57.9181 21.5989 58.3295 21.141 58.3295 20.5761C58.3295 20.0113 57.9181 19.5534 57.4106 19.5534C56.903 19.5534 56.4916 20.0113 56.4916 20.5761C56.4916 21.141 56.903 21.5989 57.4106 21.5989Z" fill="#D0D0D0"/>
<path d="M51.7939 1.63702H7.00665V38.8521H51.7939V1.63702Z" fill="#00B140"/>
<path opacity="0.1" d="M49.7939 1.63702H9.00665C7.90208 1.63702 7.00665 2.53245 7.00665 3.63702V36.8521C7.00665 37.9567 7.90208 38.8521 9.00665 38.8521H49.7939C50.8985 38.8521 51.7939 37.9567 51.7939 36.8521V3.63702C51.7939 2.53245 50.8985 1.63702 49.7939 1.63702Z" fill="#141414"/>
<path d="M17.6394 0.111619L12.3097 0.876179C11.88 0.937822 11.5765 1.37547 11.6319 1.85369L12.0448 5.41828C12.1002 5.89649 12.4934 6.2342 12.9231 6.17256L18.2528 5.408C18.6825 5.34635 18.986 4.90871 18.9306 4.43049L18.5177 0.865897C18.4623 0.387677 18.0691 0.0499761 17.6394 0.111619Z" fill="#00B140"/>
<path d="M12.4505 11.1494L12.1904 11.3738C12.1809 11.3829 12.1694 11.389 12.1571 11.3913C12.1449 11.3929 12.1325 11.3911 12.1211 11.3859C12.1098 11.3808 12.0997 11.3725 12.092 11.3619C12.0857 11.3542 12.081 11.3452 12.078 11.3354C12.075 11.3255 12.0739 11.3152 12.0748 11.3048C12.0756 11.2945 12.0784 11.2845 12.0828 11.2754C12.0873 11.2664 12.0935 11.2584 12.1008 11.2521L12.4564 10.9371C12.4707 10.9251 12.4885 10.9196 12.5064 10.9213C12.5242 10.9231 12.5409 10.9322 12.5531 10.9467C12.564 10.9628 12.5696 10.9825 12.5692 11.0026L12.8057 13.0445C12.8079 13.0646 12.803 13.085 12.7918 13.101C12.7807 13.1171 12.7643 13.1277 12.7462 13.1304C12.728 13.1324 12.7097 13.1267 12.695 13.1144C12.6804 13.1021 12.6704 13.0841 12.6672 13.064L12.4505 11.1494Z" fill="#D0D0D0"/>
<path d="M13.2865 12.9193L14.1099 11.8496C14.1576 11.7882 14.1931 11.7163 14.2143 11.6386C14.2354 11.5609 14.2416 11.4791 14.2326 11.3986C14.2139 11.248 14.1426 11.1117 14.0342 11.0193C13.9259 10.9268 13.7891 10.8855 13.6536 10.9044C13.5247 10.9218 13.4061 10.9917 13.3208 11.1007L13.2367 11.2134C13.225 11.2294 13.208 11.2395 13.1896 11.2416C13.1711 11.2436 13.1527 11.2375 13.1383 11.2244C13.1239 11.2114 13.1148 11.1925 13.113 11.1719C13.1111 11.1514 13.1167 11.1309 13.1284 11.1149L13.2147 10.9983C13.3226 10.8609 13.4718 10.7719 13.6344 10.7481C13.8067 10.7248 13.9804 10.7779 14.1179 10.8959C14.2554 11.0139 14.3457 11.1874 14.3692 11.3788C14.3812 11.4805 14.3739 11.5839 14.3479 11.6823C14.3219 11.7807 14.2776 11.8719 14.2181 11.9502L13.512 12.8668L14.4606 12.732C14.4791 12.7302 14.4976 12.7366 14.5119 12.7497C14.5263 12.7629 14.5355 12.7818 14.5374 12.8023C14.5397 12.8225 14.5348 12.8428 14.5236 12.8589C14.5125 12.875 14.4961 12.8855 14.478 12.8882L13.3702 13.0446L13.359 13.0435C13.3493 13.0456 13.3394 13.0452 13.3299 13.0425C13.3204 13.0397 13.3115 13.0346 13.304 13.0275C13.2898 13.015 13.2801 12.997 13.2769 12.9771C13.2737 12.9572 13.2771 12.9367 13.2865 12.9193Z" fill="#D0D0D0"/>
<path d="M15.9601 10.5591L15.5126 11.2239C15.6695 11.235 15.818 11.3071 15.932 11.4276C16.046 11.5481 16.1184 11.7094 16.1364 11.8832C16.1485 11.9824 16.1427 12.0833 16.1191 12.1799C16.0955 12.2765 16.0547 12.3668 15.9991 12.4455C15.8879 12.6054 15.7244 12.7099 15.5443 12.7361C15.4557 12.7491 15.3656 12.7422 15.2794 12.7156C15.1933 12.6891 15.1128 12.6435 15.0429 12.5816C15.0354 12.5755 15.029 12.5678 15.0242 12.5589C15.0194 12.55 15.0163 12.5401 15.015 12.5298C15.0138 12.5196 15.0144 12.5091 15.0168 12.4991C15.0193 12.4891 15.0235 12.4798 15.0293 12.4717C15.0349 12.4632 15.042 12.4561 15.0502 12.4508C15.0583 12.4455 15.0674 12.442 15.0767 12.4406C15.0861 12.4392 15.0956 12.4399 15.1048 12.4427C15.1139 12.4454 15.1224 12.4502 15.1299 12.4567C15.2438 12.5531 15.3872 12.5959 15.5291 12.5757C15.6711 12.5555 15.8002 12.4741 15.8887 12.3489C15.9328 12.2864 15.9651 12.2148 15.9839 12.1381C16.0026 12.0615 16.0074 11.9815 15.9979 11.9028C15.9788 11.7456 15.9046 11.6032 15.7916 11.5067C15.6785 11.4101 15.5357 11.3673 15.3944 11.3874C15.3834 11.3885 15.3723 11.3868 15.3619 11.3825C15.3516 11.3782 15.3422 11.3714 15.3345 11.3626C15.3266 11.3563 15.32 11.3483 15.3151 11.339C15.3102 11.3298 15.307 11.3195 15.3057 11.3088C15.3045 11.2981 15.3052 11.2873 15.3079 11.2769C15.3105 11.2666 15.3151 11.257 15.3212 11.2486L15.7479 10.6088L14.9889 10.7187C14.9795 10.7202 14.97 10.7196 14.9608 10.717C14.9517 10.7143 14.9431 10.7097 14.9356 10.7033C14.928 10.6969 14.9217 10.6889 14.917 10.6798C14.9123 10.6706 14.9093 10.6605 14.9082 10.6501C14.9068 10.6396 14.9073 10.629 14.9097 10.6188C14.9121 10.6086 14.9163 10.5991 14.922 10.5907C14.9277 10.5823 14.9349 10.5753 14.9431 10.5701C14.9514 10.5648 14.9604 10.5615 14.9698 10.5602L15.9033 10.4261C15.9224 10.4237 15.9416 10.4297 15.9567 10.443C15.9718 10.4562 15.9816 10.4755 15.9839 10.4968C15.9858 10.5086 15.9848 10.5207 15.981 10.532C15.9753 10.5421 15.9683 10.5512 15.9601 10.5591Z" fill="#D0D0D0"/>
<path d="M17.825 11.9435L16.7435 12.0984C16.7359 12.1012 16.7278 12.1023 16.7198 12.1015C16.7118 12.1007 16.704 12.098 16.697 12.0937C16.689 12.0886 16.6821 12.0816 16.6768 12.0733C16.6714 12.0649 16.6677 12.0555 16.6658 12.0454C16.664 12.0354 16.6641 12.025 16.6661 12.015C16.6681 12.005 16.6719 11.9956 16.6774 11.9874L17.6471 10.2206C17.6518 10.2118 17.6581 10.2042 17.6655 10.1982C17.6729 10.1921 17.6814 10.1879 17.6904 10.1857C17.6993 10.1834 17.7086 10.1833 17.7176 10.1852C17.7267 10.1871 17.7352 10.191 17.7428 10.1968C17.7543 10.2063 17.7636 10.2187 17.7699 10.2329C17.7699 10.2329 17.7699 10.2329 17.7691 10.2432L17.7683 10.2536L17.9452 11.7782L18.0781 11.7581C18.0874 11.7565 18.0968 11.757 18.1059 11.7595C18.1149 11.762 18.1235 11.7664 18.131 11.7726C18.1385 11.7788 18.1448 11.7866 18.1496 11.7955C18.1545 11.8044 18.1576 11.8143 18.159 11.8246C18.1601 11.8349 18.1593 11.8453 18.1567 11.8552C18.154 11.8651 18.1496 11.8743 18.1437 11.8823C18.1378 11.8903 18.1306 11.8968 18.1223 11.9016C18.1141 11.9064 18.1051 11.9093 18.0958 11.9101L17.9629 11.9302L18.0071 12.3124C18.0077 12.3321 18.0017 12.3514 17.9902 12.3665C17.9787 12.3815 17.9625 12.3912 17.9449 12.3936C17.9273 12.396 17.9095 12.391 17.895 12.3796C17.8806 12.3681 17.8705 12.3511 17.8668 12.3317L17.825 11.9435ZM17.8072 11.7915L17.6572 10.4909L16.8619 11.9328L17.8072 11.7915Z" fill="#D0D0D0"/>
<path d="M20.3552 11.823C20.3476 11.8169 20.3412 11.8092 20.3365 11.8002C20.3317 11.7913 20.3287 11.7813 20.3276 11.771C20.3265 11.7607 20.3273 11.7502 20.33 11.7403C20.3328 11.7304 20.3373 11.7212 20.3434 11.7133C20.3491 11.7046 20.3563 11.6972 20.3646 11.6917C20.3729 11.6862 20.3822 11.6827 20.3918 11.6813C20.4014 11.6799 20.4111 11.6807 20.4204 11.6837C20.4297 11.6866 20.4384 11.6917 20.4459 11.6985C20.5591 11.7933 20.701 11.8352 20.8415 11.8153C20.9828 11.794 21.1109 11.7116 21.198 11.5859C21.285 11.4601 21.324 11.3013 21.3065 11.1438C21.2986 11.0656 21.2767 10.9899 21.2421 10.9213C21.2075 10.8526 21.1608 10.7924 21.1049 10.7442C21.049 10.696 20.9849 10.6607 20.9166 10.6406C20.8482 10.6204 20.7769 10.6157 20.7068 10.6268C20.6362 10.6364 20.5679 10.6616 20.5061 10.7009C20.4444 10.7402 20.3902 10.7929 20.347 10.8559C20.3415 10.8642 20.3346 10.8713 20.3266 10.8766C20.3186 10.882 20.3098 10.8854 20.3005 10.8869C20.2913 10.8883 20.2819 10.8876 20.273 10.8849C20.264 10.8822 20.2556 10.8774 20.2483 10.871C20.2396 10.8656 20.2325 10.8577 20.2276 10.8481C20.227 10.8397 20.2276 10.8313 20.2296 10.8232C20.231 10.8179 20.2315 10.8123 20.231 10.8067L20.2237 9.89808C20.2229 9.88681 20.2244 9.87549 20.2282 9.865C20.2319 9.85451 20.2379 9.84514 20.2454 9.83764C20.2507 9.83012 20.2572 9.82386 20.2647 9.81923C20.2722 9.8146 20.2804 9.81169 20.2889 9.81068L21.2204 9.67843C21.2297 9.67717 21.2392 9.67797 21.2482 9.68078C21.2573 9.6836 21.2658 9.68837 21.2732 9.69483C21.2806 9.70129 21.2868 9.7093 21.2914 9.71842C21.296 9.72754 21.299 9.73758 21.3001 9.74797C21.3012 9.75836 21.3005 9.7689 21.298 9.77898C21.2954 9.78906 21.2912 9.79849 21.2854 9.80673C21.2795 9.81497 21.2723 9.82185 21.2642 9.82699C21.256 9.83213 21.2469 9.83543 21.2376 9.83668L20.3688 9.95851L20.3727 10.6309C20.504 10.5184 20.6677 10.463 20.8332 10.4751C20.9986 10.4871 21.1544 10.5659 21.2714 10.6965C21.3884 10.8272 21.4587 11.0008 21.469 11.185C21.4793 11.3691 21.429 11.5511 21.3274 11.6969C21.2147 11.8543 21.052 11.9576 20.8728 11.9854C20.7811 11.9985 20.688 11.9909 20.5991 11.963C20.5101 11.9351 20.4272 11.8875 20.3552 11.823Z" fill="#D0D0D0"/>
<path d="M22.0826 10.0318C22.1331 9.87981 22.2193 9.74561 22.3321 9.64312C22.4449 9.54064 22.5803 9.47361 22.7242 9.44898C22.7426 9.44573 22.7614 9.45066 22.7766 9.46272C22.7918 9.47478 22.8021 9.493 22.8053 9.51344C22.8072 9.53431 22.8022 9.55525 22.7911 9.57224C22.78 9.58924 22.7637 9.60109 22.7453 9.60554C22.6252 9.62598 22.5122 9.68197 22.4182 9.76767C22.3242 9.85336 22.2526 9.9656 22.2109 10.0926C22.1575 10.2408 22.1265 10.3978 22.119 10.5572C22.2057 10.4159 22.3339 10.3127 22.4816 10.2652C22.6293 10.2177 22.7872 10.229 22.9282 10.2971C23.0693 10.3652 23.1846 10.4858 23.2543 10.6383C23.3241 10.7908 23.3439 10.9655 23.3104 11.1325C23.2769 11.2995 23.1922 11.4482 23.0708 11.5532C22.9494 11.6582 22.7989 11.7128 22.6453 11.7077C22.4916 11.7025 22.3443 11.638 22.2288 11.5251C22.1133 11.4122 22.0367 11.2581 22.0123 11.0892C22.0018 11.0411 21.9945 10.9922 21.9903 10.943C21.951 10.6355 21.9828 10.3219 22.0826 10.0318ZM22.1501 11.055C22.1521 11.0692 22.156 11.0829 22.1618 11.0958C22.1629 11.1034 22.1623 11.1113 22.1599 11.1186C22.1936 11.2671 22.2778 11.3953 22.3949 11.476C22.5119 11.5567 22.6525 11.5836 22.787 11.551C22.9216 11.5184 23.0394 11.4289 23.1158 11.3014C23.1921 11.1739 23.2209 11.0184 23.196 10.8677C23.1712 10.717 23.0947 10.5829 22.9827 10.4938C22.8707 10.4048 22.732 10.3676 22.5958 10.3903C22.4597 10.4129 22.3368 10.4936 22.2531 10.6153C22.1694 10.7369 22.1315 10.89 22.1473 11.0422L22.1501 11.055Z" fill="#D0D0D0"/>
<path d="M24.1292 11.3948L24.6402 9.34008L23.6778 9.48384C23.6605 9.48477 23.6434 9.4784 23.6301 9.466C23.6168 9.4536 23.6082 9.43608 23.606 9.41692C23.6037 9.39776 23.6081 9.37837 23.6181 9.3626C23.6281 9.34683 23.6431 9.33583 23.6601 9.3318L24.7169 9.18078C24.7306 9.17797 24.7447 9.17938 24.7578 9.18487C24.7764 9.19238 24.7919 9.20731 24.8013 9.22679C24.8004 9.23714 24.8094 9.24221 24.8104 9.25275C24.813 9.26732 24.8117 9.28239 24.8069 9.29622L24.271 11.4508C24.2672 11.4652 24.2598 11.4782 24.2497 11.4882C24.2396 11.4983 24.2272 11.505 24.2139 11.5077C24.2039 11.5098 24.1936 11.5088 24.1841 11.5047C24.1738 11.5019 24.1641 11.4968 24.1556 11.4897C24.1472 11.4826 24.1401 11.4735 24.135 11.4632C24.1298 11.4529 24.1266 11.4415 24.1256 11.4297C24.1247 11.4179 24.1259 11.4061 24.1292 11.3948Z" fill="#D0D0D0"/>
<path d="M25.8588 8.9965C25.9466 8.98352 26.0357 9.00183 26.1135 9.0488C26.1913 9.09577 26.2537 9.16897 26.2918 9.2579C26.3298 9.34683 26.3416 9.4469 26.3253 9.54371C26.309 9.64052 26.2656 9.7291 26.2012 9.7967C26.3468 9.8405 26.4742 9.93911 26.5617 10.0757C26.6493 10.2123 26.6916 10.3785 26.6815 10.546C26.6713 10.7134 26.6093 10.8717 26.506 10.994C26.4027 11.1162 26.2645 11.1949 26.1149 11.2165C25.9654 11.2381 25.8138 11.2013 25.6858 11.1124C25.5579 11.0236 25.4617 10.8881 25.4134 10.7291C25.3652 10.5701 25.368 10.3974 25.4213 10.2404C25.4747 10.0835 25.5752 9.95192 25.7059 9.86822C25.6495 9.83139 25.6014 9.78063 25.5653 9.71986C25.5293 9.65908 25.5062 9.58991 25.4979 9.51766C25.4907 9.45704 25.4943 9.39541 25.5085 9.33634C25.5228 9.27727 25.5474 9.22191 25.5809 9.17347C25.6145 9.12503 25.6563 9.08445 25.704 9.05408C25.7517 9.0237 25.8043 9.00414 25.8588 8.9965ZM26.0985 11.0679C26.1997 11.0535 26.2947 11.006 26.3716 10.9314C26.4484 10.8569 26.5037 10.7586 26.5304 10.6491C26.5572 10.5396 26.5541 10.4238 26.5216 10.3162C26.4892 10.2086 26.4288 10.1142 26.3481 10.0448C26.2674 9.97544 26.17 9.93426 26.0683 9.92648C25.9666 9.91869 25.8651 9.94465 25.7766 10.0011C25.6881 10.0575 25.6167 10.1418 25.5713 10.2434C25.5259 10.3451 25.5086 10.4594 25.5216 10.5719C25.5297 10.6469 25.5512 10.7193 25.5847 10.7849C25.6182 10.8505 25.6631 10.9081 25.7168 10.9543C25.7705 11.0004 25.8319 11.0342 25.8974 11.0537C25.963 11.0732 26.0313 11.0781 26.0985 11.0679ZM25.9482 9.7714C26.0223 9.75989 26.0893 9.71631 26.1347 9.65011C26.1801 9.58391 26.2001 9.50045 26.1905 9.41787C26.181 9.33582 26.1425 9.26136 26.0837 9.21085C26.0248 9.16034 25.9503 9.13793 25.8766 9.14855C25.8029 9.15916 25.7359 9.20194 25.6906 9.26746C25.6452 9.33298 25.625 9.41589 25.6346 9.49793C25.6441 9.58021 25.6824 9.655 25.741 9.70616C25.7997 9.75733 25.8741 9.78076 25.9482 9.7714Z" fill="#D0D0D0"/>
<path d="M29.4088 8.48748C29.5708 8.46343 29.735 8.50681 29.8701 8.60929C30.0051 8.71177 30.1013 8.86614 30.1404 9.04275C30.1404 9.04275 30.1404 9.04276 30.1394 9.05518C30.1494 9.11671 30.1594 9.17824 30.1671 9.24579C30.2067 9.5538 30.1762 9.86794 30.0783 10.1594C30.0266 10.3109 29.9399 10.4446 29.827 10.5469C29.714 10.6492 29.5787 10.7165 29.4349 10.7421C29.426 10.7443 29.4167 10.7444 29.4078 10.7425C29.3988 10.7405 29.3903 10.7364 29.3828 10.7306C29.3753 10.7247 29.369 10.7172 29.3643 10.7084C29.3596 10.6997 29.3566 10.69 29.3555 10.6798C29.3538 10.6695 29.354 10.6589 29.356 10.6487C29.358 10.6384 29.3618 10.6287 29.3672 10.6202C29.3726 10.6116 29.3795 10.6043 29.3875 10.5987C29.3954 10.5931 29.4043 10.5893 29.4136 10.5876C29.5339 10.5669 29.647 10.5108 29.7412 10.4252C29.8355 10.3396 29.9075 10.2276 29.9499 10.1006C30.0032 9.95245 30.0336 9.79533 30.04 9.63588C29.9777 9.73816 29.8933 9.82145 29.7947 9.87816C29.696 9.93487 29.5862 9.96318 29.4752 9.96053C29.3642 9.95787 29.2556 9.92432 29.1592 9.86294C29.0629 9.80156 28.9818 9.71431 28.9236 9.60914C28.8653 9.50398 28.8316 9.38424 28.8255 9.26086C28.8195 9.13748 28.8413 9.01439 28.889 8.90281C28.9367 8.79123 29.0088 8.69471 29.0986 8.62206C29.1884 8.54942 29.2931 8.50296 29.4032 8.48692L29.4088 8.48748ZM30.016 9.14302C30.0029 9.0285 29.9595 8.92088 29.8915 8.83375C29.8234 8.74662 29.7337 8.68388 29.6337 8.65345C29.5336 8.62303 29.4277 8.62629 29.3293 8.66282C29.2309 8.69935 29.1444 8.76751 29.0808 8.8587C29.0171 8.94989 28.9792 9.06 28.9718 9.17515C28.9644 9.2903 28.9878 9.40531 29.0391 9.50567C29.0904 9.60602 29.1672 9.68721 29.2599 9.73899C29.3526 9.79077 29.4571 9.81081 29.56 9.79659C29.6286 9.78712 29.6947 9.76268 29.7548 9.72468C29.8148 9.68668 29.8675 9.63587 29.9099 9.57515C29.9523 9.51443 29.9834 9.44501 30.0016 9.37085C30.0199 9.2967 30.0247 9.21927 30.016 9.14302Z" fill="#D0D0D0"/>
<path d="M30.7054 9.43111C30.6683 9.15796 30.7032 8.87871 30.8059 8.6272C30.8426 8.51943 30.9048 8.42477 30.986 8.35331C31.0672 8.28185 31.1644 8.23628 31.2671 8.22148C31.3697 8.20667 31.4741 8.22319 31.569 8.26925C31.6639 8.31531 31.7458 8.3892 31.8059 8.48302C31.9623 8.69844 32.0609 8.9586 32.0903 9.2336C32.1248 9.50717 32.088 9.78599 31.9842 10.0369C31.9504 10.1473 31.8894 10.2449 31.8083 10.3186C31.7271 10.3924 31.629 10.4393 31.5251 10.4542C31.4212 10.469 31.3156 10.4511 31.2204 10.4025C31.1251 10.3539 31.044 10.2765 30.9863 10.1792C30.8284 9.96613 30.7307 9.70585 30.7054 9.43111ZM30.8457 9.41175C30.8696 9.65544 30.9557 9.88641 31.0939 10.0773C31.1383 10.1507 31.2002 10.2089 31.2726 10.2453C31.345 10.2817 31.4251 10.295 31.5039 10.2836C31.5828 10.2722 31.6572 10.2366 31.7188 10.1807C31.7805 10.1249 31.8269 10.051 31.8529 9.96746C31.9412 9.74305 31.9729 9.49613 31.9446 9.25321C31.9163 9.01028 31.8291 8.7805 31.6923 8.58854C31.648 8.51515 31.5861 8.45697 31.5137 8.42053C31.4412 8.38409 31.3611 8.37084 31.2823 8.38224C31.2035 8.39365 31.1291 8.42927 31.0674 8.48511C31.0058 8.54095 30.9594 8.6148 30.9333 8.69838C30.8428 8.92175 30.8124 9.16954 30.8457 9.41175Z" fill="#D0D0D0"/>
<path d="M32.9096 8.21566L32.6495 8.4401C32.6401 8.4492 32.6285 8.45526 32.6162 8.45765C32.604 8.45925 32.5916 8.45739 32.5803 8.45223C32.5689 8.44708 32.5588 8.4388 32.5511 8.42817C32.5451 8.42038 32.5405 8.41132 32.5377 8.40154C32.5349 8.39176 32.5339 8.38146 32.5347 8.37123C32.5356 8.361 32.5382 8.35106 32.5425 8.342C32.5469 8.33293 32.5528 8.32492 32.56 8.31845L32.9155 8.00337C32.9295 7.99049 32.9475 7.98429 32.9656 7.9861C32.9837 7.98791 33.0005 7.99759 33.0122 8.01304C33.0231 8.02912 33.0287 8.04881 33.0283 8.06892L33.2648 10.1108C33.2671 10.1309 33.2621 10.1513 33.251 10.1674C33.2398 10.1834 33.2234 10.194 33.2053 10.1967C33.1873 10.1987 33.1693 10.1929 33.1549 10.1806C33.1406 10.1683 33.131 10.1504 33.1282 10.1305L32.9096 8.21566Z" fill="#D0D0D0"/>
<path d="M33.753 9.98636L34.5766 8.91457C34.6243 8.85356 34.6599 8.78202 34.681 8.70465C34.7021 8.62727 34.7083 8.5458 34.6991 8.46557C34.6825 8.32408 34.6186 8.19474 34.5202 8.10331C34.4658 8.05096 34.4019 8.01212 34.3329 7.98938C34.264 7.96665 34.1914 7.96054 34.1201 7.97147C33.992 7.9881 33.874 8.05744 33.7894 8.16588L33.7034 8.27834C33.698 8.28688 33.691 8.29403 33.6829 8.29931C33.6748 8.30458 33.6658 8.30785 33.6565 8.3089C33.6471 8.30994 33.6377 8.30874 33.6288 8.30537C33.6199 8.302 33.6118 8.29654 33.605 8.28937C33.5978 8.28321 33.5918 8.27544 33.5874 8.26655C33.583 8.25766 33.5803 8.24785 33.5796 8.23776C33.5788 8.22766 33.5799 8.21749 33.5829 8.20791C33.5859 8.19832 33.5906 8.18953 33.5968 8.1821L33.6812 8.06532C33.7891 7.9279 33.9383 7.83895 34.1009 7.8151C34.2733 7.7918 34.4469 7.84489 34.5844 7.9629C34.7219 8.08092 34.8122 8.25439 34.8357 8.44584C34.8477 8.54754 34.8404 8.65091 34.8144 8.7493C34.7884 8.84769 34.7442 8.93895 34.6846 9.0172L33.9786 9.93378L34.9271 9.79906C34.9457 9.79724 34.9641 9.80358 34.9785 9.81673C34.9928 9.82988 35.002 9.84877 35.004 9.86936C35.0063 9.88951 35.0013 9.90985 34.9902 9.92594C34.979 9.94203 34.9626 9.95257 34.9445 9.95525L33.8326 10.1154L33.8215 10.1143C33.8124 10.118 33.8026 10.1194 33.793 10.1185C33.7833 10.1175 33.774 10.1141 33.7656 10.1087C33.7572 10.1019 33.7501 10.0933 33.7448 10.0833C33.7395 10.0733 33.7362 10.0621 33.735 10.0506C33.7338 10.0391 33.7348 10.0274 33.7379 10.0164C33.741 10.0053 33.7462 9.99508 33.753 9.98636Z" fill="#D0D0D0"/>
<path d="M38.1304 7.38118L37.6829 8.04603C37.8146 8.05715 37.9405 8.11033 38.0456 8.19918C38.1525 8.29164 38.2323 8.41722 38.2751 8.5601C38.3179 8.70298 38.3218 8.85676 38.2862 9.00206C38.2506 9.14737 38.1771 9.2777 38.0751 9.37663C37.973 9.47556 37.847 9.53866 37.7127 9.55798C37.6241 9.57105 37.5341 9.56411 37.4479 9.53756C37.3618 9.51102 37.2813 9.46541 37.2114 9.40348C37.2038 9.39739 37.1975 9.38967 37.1927 9.38079C37.1879 9.3719 37.1848 9.36203 37.1835 9.35177C37.1822 9.3415 37.1829 9.33106 37.1853 9.32106C37.1877 9.31107 37.192 9.30172 37.1977 9.29359C37.2034 9.28515 37.2105 9.27806 37.2187 9.27273C37.2268 9.2674 37.2358 9.26393 37.2452 9.26254C37.2546 9.26114 37.2641 9.26184 37.2732 9.2646C37.2824 9.26736 37.2909 9.27212 37.2983 9.27861C37.3685 9.3394 37.4511 9.37995 37.5388 9.39666C37.6265 9.41336 37.7165 9.4057 37.8008 9.37435C37.8852 9.34301 37.9613 9.28895 38.0224 9.21698C38.0834 9.14501 38.1276 9.05737 38.1509 8.96184C38.1742 8.86631 38.1759 8.76585 38.1559 8.66941C38.1359 8.57296 38.0948 8.48351 38.0362 8.40901C37.9776 8.3345 37.9035 8.27726 37.8202 8.24236C37.737 8.20746 37.6473 8.19599 37.5591 8.20897C37.5481 8.21017 37.537 8.20857 37.5266 8.20428C37.5162 8.19998 37.5069 8.19311 37.4992 8.18419C37.4843 8.17075 37.4745 8.15139 37.472 8.13015C37.4695 8.1089 37.4745 8.08741 37.4859 8.07016L37.9128 7.42829L37.1537 7.5402C37.1346 7.54263 37.1154 7.53656 37.1003 7.52333C37.0852 7.51009 37.0754 7.49076 37.0731 7.46953C37.0717 7.45911 37.0722 7.44849 37.0746 7.4383C37.077 7.4281 37.0812 7.41854 37.0869 7.41017C37.0927 7.40179 37.0998 7.39479 37.1081 7.38955C37.1163 7.38432 37.1253 7.38097 37.1347 7.37969L38.0681 7.24763C38.0775 7.24611 38.087 7.24668 38.0962 7.24932C38.1053 7.25197 38.1139 7.25662 38.1214 7.26301C38.129 7.2694 38.1353 7.2774 38.14 7.28654C38.1447 7.29568 38.1477 7.30577 38.1488 7.31623C38.1507 7.32803 38.1498 7.3402 38.146 7.35143C38.1421 7.36212 38.1369 7.37214 38.1304 7.38118Z" fill="#D0D0D0"/>
<path d="M39.9953 8.76567L38.9138 8.92049L38.9045 8.91956C38.8897 8.92416 38.8738 8.92257 38.8599 8.9151C38.852 8.90989 38.8451 8.90294 38.8397 8.89467C38.8343 8.8864 38.8305 8.87698 38.8285 8.86701C38.8265 8.85703 38.8263 8.84669 38.828 8.83665C38.8298 8.8266 38.8333 8.81706 38.8385 8.8086L39.81 7.042C39.8149 7.03339 39.8212 7.02596 39.8287 7.02017C39.8362 7.01437 39.8447 7.01034 39.8536 7.0083C39.8625 7.00627 39.8718 7.00628 39.8807 7.00833C39.8896 7.01039 39.8981 7.01444 39.9056 7.02025C39.917 7.02898 39.9263 7.04066 39.9328 7.05428C39.9322 7.05838 39.9318 7.06254 39.9318 7.0667L40.1088 8.59127L40.2417 8.57117C40.2508 8.56989 40.26 8.57061 40.2688 8.57329C40.2777 8.57598 40.286 8.58058 40.2932 8.58683C40.3005 8.59308 40.3065 8.60085 40.3111 8.60971C40.3156 8.61857 40.3185 8.62834 40.3197 8.63845C40.3209 8.64857 40.3202 8.65885 40.3178 8.66869C40.3154 8.67853 40.3112 8.68774 40.3056 8.6958C40.3 8.70387 40.293 8.71062 40.2851 8.71568C40.2771 8.72074 40.2683 8.724 40.2592 8.72528L40.1265 8.74332L40.1688 9.12531C40.1699 9.13543 40.1692 9.14569 40.1667 9.15549C40.1642 9.1653 40.16 9.17445 40.1543 9.18243C40.1486 9.1904 40.1415 9.19704 40.1335 9.20194C40.1254 9.20685 40.1166 9.20993 40.1075 9.21101C40.0985 9.21256 40.0893 9.21206 40.0805 9.20954C40.0717 9.20702 40.0634 9.20253 40.0562 9.19634C40.049 9.19015 40.0429 9.1824 40.0385 9.17355C40.0341 9.1647 40.0313 9.15493 40.0303 9.14485L39.9953 8.76567ZM39.9777 8.61156L39.8259 7.31073L39.0327 8.74872L39.9777 8.61156Z" fill="#D0D0D0"/>
<path d="M40.8142 8.88931C40.8068 8.88287 40.8006 8.87485 40.796 8.86571C40.7914 8.85658 40.7885 8.84653 40.7874 8.83612C40.7863 8.82572 40.7871 8.81519 40.7898 8.80513C40.7924 8.79507 40.7967 8.78569 40.8026 8.77754C40.8147 8.76086 40.8321 8.75 40.8512 8.74725C40.8703 8.74449 40.8896 8.75004 40.9051 8.76274C41.0176 8.85906 41.1598 8.90181 41.3006 8.8816C41.4419 8.86032 41.57 8.77788 41.657 8.65217C41.7441 8.52646 41.783 8.36763 41.7655 8.21014C41.7577 8.13191 41.7358 8.05623 41.7011 7.98758C41.6665 7.91894 41.6199 7.85872 41.5639 7.81051C41.508 7.76229 41.444 7.72706 41.3756 7.70689C41.3072 7.68672 41.2359 7.68203 41.1659 7.6931C41.0955 7.70274 41.0275 7.72799 40.966 7.76737C40.9046 7.80675 40.8508 7.85945 40.8079 7.92236C40.8023 7.93079 40.7952 7.93789 40.787 7.94322C40.7789 7.94855 40.7698 7.95202 40.7605 7.95341C40.7511 7.95481 40.7416 7.9541 40.7324 7.95134C40.7233 7.94859 40.7148 7.94383 40.7073 7.93734C40.6992 7.93128 40.6921 7.92349 40.6867 7.91441C40.686 7.90606 40.6867 7.89765 40.6887 7.88957C40.6901 7.88419 40.6905 7.87857 40.69 7.873L40.6827 6.96439C40.6819 6.95281 40.6835 6.94117 40.6873 6.93034C40.6911 6.91951 40.697 6.90979 40.7047 6.90189C40.7159 6.88802 40.7313 6.87917 40.7479 6.87699L41.6794 6.74475C41.6888 6.74349 41.6982 6.74429 41.7073 6.7471C41.7164 6.74991 41.7248 6.75469 41.7322 6.76114C41.7396 6.7676 41.7458 6.77562 41.7504 6.78474C41.7551 6.79385 41.758 6.8039 41.7591 6.81429C41.7603 6.82468 41.7596 6.83522 41.757 6.8453C41.7545 6.85538 41.7502 6.86481 41.7444 6.87305C41.7386 6.88129 41.7314 6.88817 41.7232 6.89331C41.715 6.89845 41.706 6.90174 41.6967 6.903L40.8279 7.02483L40.8319 7.69518C40.9278 7.61416 41.0413 7.56286 41.1609 7.5465C41.2493 7.53256 41.3393 7.5387 41.4255 7.56454C41.5118 7.59038 41.5924 7.63539 41.6626 7.69686C41.7344 7.75695 41.7943 7.83288 41.8386 7.9199C41.8829 8.00692 41.9105 8.10316 41.9199 8.20262C41.9322 8.30124 41.9267 8.4016 41.9038 8.49785C41.8809 8.59409 41.841 8.6843 41.7865 8.76323C41.6737 8.92064 41.511 9.0239 41.3319 9.05169C41.2402 9.06486 41.1471 9.05726 41.0582 9.02935C40.9692 9.00145 40.8862 8.95381 40.8142 8.88931Z" fill="#D0D0D0"/>
<path d="M42.5417 7.09811C42.5925 6.94598 42.679 6.81175 42.7921 6.7093C42.9052 6.60686 43.0409 6.53994 43.1851 6.51546C43.203 6.51214 43.2214 6.5168 43.2363 6.52844C43.2511 6.54008 43.2612 6.55777 43.2645 6.57766C43.2669 6.59889 43.2621 6.62036 43.2509 6.63781C43.2398 6.65525 43.2232 6.6674 43.2044 6.67183C43.0845 6.69212 42.9717 6.74782 42.8777 6.83313C42.7837 6.91844 42.712 7.03024 42.6701 7.15687C42.6168 7.30582 42.5857 7.46343 42.578 7.62351C42.6301 7.53564 42.6986 7.46131 42.7788 7.40558C42.859 7.34985 42.9491 7.31404 43.0429 7.30059C43.1724 7.28216 43.3038 7.30652 43.4209 7.37061C43.5379 7.43471 43.6355 7.53572 43.7013 7.66106C43.7672 7.78641 43.7985 7.93055 43.7913 8.07553C43.7841 8.22051 43.7387 8.35993 43.6608 8.47641C43.5829 8.5929 43.4759 8.68132 43.3532 8.73064C43.2305 8.77997 43.0975 8.78803 42.9707 8.75381C42.8439 8.7196 42.7289 8.64463 42.6401 8.53824C42.5513 8.43185 42.4926 8.29874 42.4713 8.15548C42.4609 8.10739 42.4535 8.05853 42.4494 8.00928C42.411 7.70174 42.4428 7.38842 42.5417 7.09811ZM42.611 8.12144C42.6119 8.13556 42.6152 8.14935 42.6208 8.16208C42.6219 8.16973 42.6213 8.17756 42.619 8.18486C42.6526 8.33341 42.7369 8.46157 42.8539 8.54226C42.9709 8.62296 43.1116 8.64986 43.2461 8.61729C43.3806 8.58472 43.4985 8.49522 43.5748 8.36771C43.6511 8.2402 43.6799 8.08467 43.6551 7.93398C43.6303 7.78328 43.5538 7.64923 43.4418 7.56014C43.3298 7.47106 43.191 7.43392 43.0549 7.45657C42.9187 7.47923 42.7958 7.5599 42.7121 7.68154C42.6284 7.80319 42.5905 7.95628 42.6064 8.10846L42.611 8.12144Z" fill="#D0D0D0"/>
<path d="M31.2798 4.19955L14.1314 8.42343L14.3179 9.3611L31.4663 5.13722L31.2798 4.19955Z" fill="#D0D0D0"/>
<path d="M26.6856 7.51476L14.5451 10.5051L14.7316 11.4428L26.8721 8.45243L26.6856 7.51476Z" fill="#D0D0D0"/>
<path d="M48.9491 6.21851H9.85138V18.9547H48.9491V6.21851Z" fill="#00B140"/>
<path opacity="0.3" d="M48.9491 6.21851H9.85138V18.9547H48.9491V6.21851Z" fill="#141414"/>
<path d="M47.8658 5.90046L47.92 28.9159C47.921 29.5334 47.7019 30.1261 47.3108 30.5641C46.9197 31.0021 46.3885 31.2496 45.8336 31.2523L13.0323 31.3459C12.7576 31.3467 12.4853 31.2872 12.2312 31.1708C11.9771 31.0544 11.7461 30.8834 11.5514 30.6675C11.3568 30.4517 11.2023 30.1952 11.0968 29.9128C10.9913 29.6305 10.9369 29.3277 10.9366 29.0219L10.8825 6.01687C10.8817 5.73225 10.9314 5.45026 11.0286 5.18702C11.1259 4.92378 11.2688 4.68444 11.4492 4.48271C11.6296 4.28097 11.844 4.12078 12.0801 4.01129C12.3161 3.9018 12.5693 3.84517 12.825 3.84462L45.9121 3.73029C46.1685 3.72947 46.4226 3.78501 46.6598 3.89373C46.8969 4.00245 47.1124 4.16221 47.2939 4.36384C47.4755 4.56546 47.6194 4.805 47.7176 5.06869C47.8157 5.33238 47.8661 5.61504 47.8658 5.90046Z" fill="#D0D0D0"/>
<path d="M42.5817 25.6877C42.5828 26.1115 42.4709 26.5263 42.2603 26.8794C42.0496 27.2325 41.7495 27.5082 41.3981 27.6715C41.0466 27.8349 40.6595 27.8786 40.2857 27.7971C39.912 27.7156 39.5683 27.5126 39.2982 27.2137C39.0281 26.9149 38.8437 26.5336 38.7683 26.1181C38.6929 25.7026 38.7299 25.2716 38.8746 24.8795C39.0194 24.4874 39.2653 24.1519 39.5814 23.9154C39.8975 23.6789 40.2695 23.552 40.6503 23.5508C40.9032 23.5499 41.1538 23.6046 41.3877 23.7115C41.6216 23.8185 41.8343 23.9756 42.0137 24.1741C42.193 24.3725 42.3355 24.6083 42.433 24.868C42.5304 25.1277 42.581 25.4062 42.5817 25.6877Z" fill="#D0D0D0"/>
<path d="M44.952 25.6793C44.9531 26.1032 44.8412 26.5179 44.6306 26.871C44.4199 27.2242 44.1198 27.4998 43.7684 27.6632C43.4169 27.8265 43.0298 27.8702 42.656 27.7887C42.2823 27.7073 41.9386 27.5042 41.6685 27.2054C41.3984 26.9065 41.214 26.5253 41.1386 26.1098C41.0632 25.6943 41.1002 25.2633 41.2449 24.8712C41.3897 24.4791 41.6356 24.1436 41.9517 23.9071C42.2678 23.6706 42.6398 23.5437 43.0206 23.5424C43.5312 23.5413 44.0214 23.7657 44.3835 24.1663C44.7455 24.567 44.95 25.1111 44.952 25.6793Z" fill="#00B140"/>
<path d="M20.1528 7.76441L14.779 7.78006C14.3457 7.78133 13.9954 8.17322 13.9965 8.6554L14.005 12.2495C14.0061 12.7316 14.3583 13.1215 14.7915 13.1202L20.1653 13.1046C20.5986 13.1033 20.9489 12.7114 20.9478 12.2292L20.9393 8.63517C20.9382 8.153 20.586 7.76314 20.1528 7.76441Z" fill="#00B140"/>
<path d="M43.6053 10.6254L40.4636 10.6358C40.2909 10.6374 40.1197 10.601 39.9598 10.5286C39.7998 10.4562 39.6544 10.3493 39.5318 10.214C39.4092 10.0787 39.3119 9.91778 39.2454 9.74042C39.179 9.56306 39.1448 9.37282 39.1449 9.18068C39.1434 8.98855 39.1761 8.798 39.2411 8.62001C39.3062 8.44203 39.4023 8.28015 39.5238 8.1437C39.6454 8.00726 39.79 7.89896 39.9494 7.82506C40.1088 7.75116 40.2797 7.71311 40.4523 7.71312L43.5941 7.70272C43.7667 7.70107 43.9379 7.7375 44.0979 7.80988C44.2578 7.88227 44.4033 7.98919 44.5259 8.12448C44.6485 8.25976 44.7458 8.42073 44.8122 8.59808C44.8786 8.77544 44.9128 8.96567 44.9128 9.15781C44.9142 9.34995 44.8815 9.54051 44.8165 9.71849C44.7514 9.89647 44.6554 10.0584 44.5338 10.1948C44.4122 10.3312 44.2676 10.4395 44.1082 10.5134C43.9489 10.5873 43.7779 10.6254 43.6053 10.6254Z" fill="#E8E8E8"/>
<path d="M13.7627 17.9902L13.4788 18.1773C13.4686 18.1845 13.4571 18.1888 13.4451 18.1898C13.4328 18.1902 13.4206 18.187 13.4097 18.1804C13.3989 18.1739 13.3898 18.1642 13.3835 18.1524C13.3786 18.1436 13.3754 18.1338 13.374 18.1236C13.3727 18.1134 13.3733 18.103 13.3757 18.093C13.3782 18.083 13.3825 18.0738 13.3883 18.0657C13.3941 18.0577 13.4014 18.0511 13.4096 18.0464L13.7982 17.7824C13.8141 17.7731 13.8327 17.771 13.85 17.7764C13.8674 17.7818 13.8822 17.7943 13.8915 17.8115C13.9011 17.8289 13.9045 17.8496 13.9009 17.8697V19.9276C13.9009 19.9377 13.8991 19.9477 13.8956 19.957C13.8921 19.9663 13.8871 19.9748 13.8806 19.982C13.8742 19.9891 13.8666 19.9948 13.8582 19.9986C13.8498 20.0025 13.8408 20.0045 13.8318 20.0045C13.8136 20.004 13.7963 19.9957 13.7834 19.9814C13.7706 19.9671 13.7631 19.9478 13.7627 19.9276V17.9902Z" fill="#D0D0D0"/>
<path d="M14.3996 19.8652L15.3335 18.9173C15.4351 18.8142 15.4956 18.6704 15.502 18.5176C15.5083 18.3648 15.4598 18.2155 15.3671 18.1025C15.2745 17.9894 15.1453 17.922 15.008 17.915C14.8707 17.908 14.7365 17.9619 14.6349 18.065L14.5378 18.1648C14.5315 18.1724 14.5238 18.1785 14.5153 18.1827C14.5068 18.1868 14.4976 18.189 14.4883 18.189C14.479 18.189 14.4698 18.1868 14.4613 18.1827C14.4527 18.1785 14.4451 18.1724 14.4388 18.1648C14.432 18.158 14.4266 18.1497 14.4228 18.1403C14.4191 18.131 14.4172 18.121 14.4172 18.1108C14.4172 18.1006 14.4191 18.0905 14.4228 18.0812C14.4266 18.0719 14.432 18.0635 14.4388 18.0567L14.5359 17.9549C14.658 17.8325 14.8162 17.7644 14.9805 17.7636C15.0717 17.7629 15.1621 17.7839 15.2455 17.8251C15.3289 17.8664 15.4035 17.9269 15.4642 18.0027C15.5768 18.1351 15.6391 18.3109 15.638 18.4932C15.6384 18.5955 15.6197 18.6968 15.5831 18.7905C15.5464 18.8843 15.4926 18.9685 15.425 19.0379L14.62 19.8486H15.5875C15.5968 19.8488 15.606 19.8511 15.6146 19.8554C15.6231 19.8596 15.6308 19.8656 15.6372 19.8732C15.6436 19.8807 15.6486 19.8896 15.652 19.8992C15.6553 19.9089 15.6569 19.9193 15.6566 19.9296C15.6562 19.9499 15.6487 19.9691 15.6359 19.9834C15.623 19.9978 15.6057 20.006 15.5875 20.0065H14.4556C14.4459 20.0075 14.4361 20.0059 14.4271 20.0019C14.418 19.9979 14.4099 19.9917 14.4033 19.9837C14.396 19.9762 14.3901 19.9672 14.3859 19.9572C14.3818 19.9472 14.3795 19.9363 14.3791 19.9253C14.3788 19.9143 14.3804 19.9033 14.3839 19.893C14.3874 19.8826 14.3928 19.8732 14.3996 19.8652Z" fill="#D0D0D0"/>
<path d="M17.3116 17.8946L16.7923 18.4891C16.9467 18.5226 17.0858 18.6151 17.1854 18.7506C17.285 18.8861 17.3389 19.0561 17.3377 19.2312C17.3382 19.3312 17.3208 19.4304 17.2865 19.5228C17.2522 19.6153 17.2016 19.6992 17.1379 19.7696C17.0097 19.9128 16.8357 19.9935 16.6541 19.9941C16.5648 19.9944 16.4764 19.9748 16.394 19.9366C16.3115 19.8984 16.2368 19.8424 16.174 19.7717C16.1669 19.7647 16.1612 19.756 16.1572 19.7464C16.1533 19.7367 16.1513 19.7262 16.1513 19.7156C16.1513 19.7049 16.1533 19.6945 16.1572 19.6848C16.1612 19.6751 16.1669 19.6665 16.174 19.6594C16.1806 19.652 16.1885 19.6461 16.1972 19.6421C16.2058 19.6381 16.2151 19.636 16.2245 19.636C16.2339 19.636 16.2431 19.6381 16.2518 19.6421C16.2605 19.6461 16.2683 19.652 16.2749 19.6594C16.3747 19.7685 16.5086 19.8303 16.6485 19.832C16.7882 19.8277 16.9214 19.7654 17.022 19.6574C17.0723 19.6014 17.112 19.535 17.1389 19.4618C17.1659 19.3887 17.1795 19.3103 17.1789 19.2312C17.178 19.0726 17.1207 18.9209 17.0195 18.8091C16.9184 18.6974 16.7817 18.6346 16.6391 18.6346C16.6279 18.6339 16.617 18.6306 16.607 18.6248C16.597 18.6191 16.5883 18.6111 16.5812 18.6014C16.5743 18.594 16.5687 18.5851 16.565 18.5753C16.5612 18.5655 16.5592 18.5549 16.5592 18.5442C16.5592 18.5335 16.5612 18.5229 16.565 18.5131C16.5687 18.5033 16.5743 18.4944 16.5812 18.487L17.0799 17.9112H16.3085C16.2914 17.9082 16.2759 17.8984 16.2647 17.8838C16.2535 17.8691 16.2473 17.8505 16.2473 17.8312C16.2473 17.812 16.2535 17.7933 16.2647 17.7787C16.2759 17.764 16.2914 17.7543 16.3085 17.7512H17.2425C17.2613 17.7512 17.2793 17.7595 17.2926 17.7743C17.306 17.7891 17.3134 17.8092 17.3134 17.8302C17.3166 17.8417 17.3166 17.854 17.3134 17.8655C17.3143 17.8753 17.3137 17.8851 17.3116 17.8946Z" fill="#D0D0D0"/>
<path d="M19.0057 19.5284H17.9149C17.8992 19.5294 17.8837 19.5234 17.8719 19.5118C17.8645 19.5058 17.8583 19.498 17.8538 19.4891C17.8492 19.4802 17.8464 19.4703 17.8455 19.4601C17.8446 19.4499 17.8457 19.4396 17.8486 19.4299C17.8516 19.4202 17.8563 19.4112 17.8626 19.4037L19.0244 17.7865C19.03 17.7785 19.0371 17.7718 19.0451 17.7669C19.0531 17.7621 19.0619 17.759 19.071 17.7581C19.0801 17.7571 19.0892 17.7582 19.0979 17.7613C19.1066 17.7644 19.1146 17.7694 19.1215 17.7761C19.1325 17.7868 19.1409 17.8004 19.1458 17.8156C19.1458 17.8156 19.1458 17.8156 19.1458 17.8281V17.8385V19.3746H19.2822C19.3005 19.3746 19.3181 19.3827 19.331 19.3972C19.344 19.4116 19.3513 19.4311 19.3513 19.4515C19.3513 19.4719 19.344 19.4915 19.331 19.5059C19.3181 19.5203 19.3005 19.5284 19.2822 19.5284H19.1458V19.913C19.1431 19.9315 19.1346 19.9483 19.1217 19.9604C19.1089 19.9726 19.0926 19.9792 19.0758 19.9792C19.0589 19.9792 19.0427 19.9726 19.0298 19.9604C19.017 19.9483 19.0085 19.9315 19.0057 19.913V19.5284ZM19.0057 19.3746V18.063L18.0569 19.3767L19.0057 19.3746Z" fill="#D0D0D0"/>
<path d="M21.5292 19.7613C21.5225 19.7539 21.5172 19.7452 21.5136 19.7356C21.51 19.7259 21.5081 19.7156 21.5081 19.7052C21.5081 19.6947 21.51 19.6844 21.5136 19.6747C21.5172 19.6651 21.5225 19.6564 21.5292 19.649C21.5431 19.6338 21.5619 19.6253 21.5815 19.6253C21.601 19.6253 21.6198 19.6338 21.6338 19.649C21.7336 19.7581 21.8675 19.8199 22.0073 19.8216C22.1482 19.8193 22.2825 19.755 22.3809 19.6428C22.4307 19.5887 22.4702 19.524 22.4971 19.4526C22.5241 19.3812 22.5379 19.3045 22.5378 19.227C22.5363 19.0714 22.4807 18.9224 22.3828 18.8113C22.2811 18.7001 22.1443 18.6378 22.0017 18.6378C21.8592 18.6378 21.7223 18.7001 21.6207 18.8113C21.6141 18.8187 21.6062 18.8246 21.5976 18.8286C21.5889 18.8326 21.5796 18.8347 21.5703 18.8347C21.5609 18.8347 21.5516 18.8326 21.5429 18.8286C21.5343 18.8246 21.5264 18.8187 21.5198 18.8113C21.5116 18.8051 21.5051 18.7965 21.5011 18.7864C21.4992 18.7775 21.4992 18.7682 21.5011 18.7593C21.5016 18.7545 21.5016 18.7496 21.5011 18.7448L21.5964 17.8406C21.5963 17.829 21.5988 17.8176 21.6037 17.8075C21.6086 17.7973 21.6157 17.7886 21.6244 17.7824C21.6375 17.7701 21.654 17.7634 21.6711 17.7636H22.605C22.6155 17.7618 22.6261 17.7624 22.6363 17.7656C22.6464 17.7688 22.6559 17.7743 22.6639 17.7819C22.6719 17.7896 22.6784 17.799 22.6828 17.8097C22.6872 17.8203 22.6895 17.8319 22.6895 17.8437C22.6895 17.8554 22.6872 17.867 22.6828 17.8777C22.6784 17.8883 22.6719 17.8978 22.6639 17.9054C22.6559 17.913 22.6464 17.9186 22.6363 17.9217C22.6261 17.9249 22.6155 17.9256 22.605 17.9237H21.7514L21.6805 18.5889C21.7843 18.5219 21.9022 18.4867 22.0223 18.487C22.1118 18.4859 22.2007 18.5047 22.2836 18.5424C22.3666 18.58 22.4419 18.6357 22.5053 18.7062C22.5686 18.7767 22.6186 18.8605 22.6525 18.9528C22.6863 19.0451 22.7032 19.144 22.7022 19.2437C22.7047 19.3427 22.6895 19.4413 22.6574 19.5338C22.6254 19.6262 22.5771 19.7106 22.5154 19.7821C22.3854 19.9219 22.2124 20.0014 22.0316 20.0045C21.9373 20.0048 21.844 19.9834 21.7575 19.9415C21.671 19.8997 21.5932 19.8383 21.5292 19.7613Z" fill="#D0D0D0"/>
<path d="M23.4437 18.2251C23.5114 18.0813 23.6124 17.9603 23.7362 17.8744C23.8599 17.7885 24.0021 17.741 24.1479 17.7366C24.1661 17.736 24.1838 17.7432 24.1974 17.7568C24.2109 17.7703 24.2193 17.7891 24.2207 17.8094C24.2208 17.8306 24.2138 17.8511 24.201 17.8669C24.1882 17.8826 24.1706 17.8925 24.1516 17.8946C24.0292 17.8985 23.9101 17.9392 23.8068 18.0124C23.7036 18.0856 23.62 18.1886 23.5651 18.3103C23.4957 18.4502 23.4478 18.6019 23.4232 18.7593C23.5252 18.6313 23.6642 18.5469 23.8161 18.5205C23.9681 18.4942 24.1235 18.5277 24.2557 18.6151C24.3879 18.7026 24.4886 18.8386 24.5404 18.9997C24.5922 19.1609 24.5919 19.3371 24.5396 19.498C24.4873 19.6589 24.3862 19.7945 24.2537 19.8815C24.1213 19.9684 23.9657 20.0013 23.8138 19.9743C23.662 19.9474 23.5233 19.8625 23.4216 19.734C23.32 19.6056 23.2617 19.4418 23.2569 19.2707C23.2541 19.2222 23.2541 19.1736 23.2569 19.1252C23.2501 18.8124 23.3144 18.5029 23.4437 18.2251ZM23.397 19.2499C23.3958 19.2637 23.3958 19.2776 23.397 19.2915C23.3981 19.299 23.3981 19.3068 23.397 19.3143C23.406 19.4673 23.468 19.6103 23.57 19.7132C23.672 19.8162 23.806 19.8709 23.9436 19.8659C24.0813 19.8609 24.2117 19.7966 24.3075 19.6865C24.4033 19.5764 24.4568 19.4291 24.4568 19.2759C24.4568 19.1226 24.4033 18.9754 24.3075 18.8653C24.2117 18.7552 24.0813 18.6908 23.9436 18.6858C23.806 18.6809 23.672 18.7356 23.57 18.8385C23.468 18.9415 23.406 19.0845 23.397 19.2374V19.2499Z" fill="#D0D0D0"/>
<path d="M25.3228 19.8631L26.07 17.8946H25.0987C25.0805 17.8941 25.0632 17.8858 25.0503 17.8715C25.0375 17.8572 25.03 17.8379 25.0296 17.8177C25.0296 17.7976 25.0366 17.7784 25.0492 17.764C25.0617 17.7497 25.0788 17.7413 25.0968 17.7408H26.1615C26.1754 17.7355 26.1905 17.7355 26.2044 17.7408C26.2224 17.7507 26.2364 17.7677 26.2437 17.7886C26.2445 17.7976 26.2445 17.8066 26.2437 17.8156C26.2437 17.8304 26.2398 17.8449 26.2325 17.8572L25.4573 19.9213C25.4519 19.9352 25.4431 19.9471 25.4319 19.9556C25.4206 19.9641 25.4074 19.9688 25.3938 19.9691C25.3847 19.9721 25.3749 19.9721 25.3658 19.9691C25.3479 19.9608 25.3335 19.9452 25.3255 19.9256C25.3176 19.9059 25.3166 19.8836 25.3228 19.8631Z" fill="#D0D0D0"/>
<path d="M27.3064 17.7242C27.4176 17.7236 27.5244 17.7721 27.6035 17.8589C27.6826 17.9458 27.7276 18.064 27.7285 18.1877C27.7281 18.2613 27.7124 18.3337 27.6826 18.3993C27.6527 18.465 27.6097 18.522 27.5567 18.566C27.6962 18.63 27.8115 18.7459 27.8828 18.8939C27.9541 19.042 27.9771 19.2129 27.9477 19.3777C27.9184 19.5424 27.8387 19.6907 27.722 19.7974C27.6054 19.904 27.4592 19.9622 27.3083 19.9622C27.1574 19.9622 27.0111 19.904 26.8945 19.7974C26.7779 19.6907 26.6981 19.5424 26.6688 19.3777C26.6395 19.2129 26.6625 19.042 26.7338 18.8939C26.8051 18.7459 26.9203 18.63 27.0599 18.566C27.0075 18.5217 26.965 18.4645 26.9359 18.3988C26.9067 18.3332 26.8916 18.2609 26.8917 18.1877C26.8915 18.1269 26.902 18.0667 26.9228 18.0105C26.9435 17.9542 26.974 17.9031 27.0125 17.8601C27.0511 17.817 27.0969 17.7828 27.1473 17.7595C27.1977 17.7362 27.2518 17.7242 27.3064 17.7242ZM27.3064 19.8029C27.4085 19.8029 27.5082 19.7692 27.593 19.706C27.6778 19.6429 27.7439 19.5532 27.7829 19.4482C27.8218 19.3433 27.8319 19.2278 27.8119 19.1164C27.7919 19.0051 27.7426 18.9029 27.6703 18.8227C27.598 18.7426 27.506 18.6881 27.4058 18.6662C27.3057 18.6443 27.202 18.6559 27.1078 18.6997C27.0137 18.7434 26.9333 18.8173 26.8769 18.9119C26.8204 19.0065 26.7905 19.1177 26.7909 19.2312C26.7896 19.3078 26.8022 19.3838 26.828 19.4548C26.8537 19.5258 26.8921 19.5903 26.9407 19.6444C26.9893 19.6986 27.0473 19.7413 27.1111 19.7699C27.1749 19.7985 27.2432 19.8126 27.312 19.8112L27.3064 19.8029ZM27.3064 18.4974C27.3814 18.4958 27.4529 18.4617 27.5055 18.4022C27.5582 18.3428 27.588 18.2629 27.5885 18.1794C27.5874 18.1181 27.57 18.0585 27.5387 18.0081C27.5073 17.9577 27.4633 17.9187 27.4121 17.896C27.3609 17.8733 27.3049 17.8679 27.2509 17.8804C27.197 17.893 27.1476 17.923 27.1089 17.9666C27.0702 18.0103 27.0439 18.0656 27.0334 18.1258C27.0228 18.186 27.0284 18.2483 27.0495 18.3049C27.0706 18.3616 27.1062 18.41 27.1519 18.4443C27.1976 18.4785 27.2513 18.497 27.3064 18.4974Z" fill="#D0D0D0"/>
<path d="M30.8871 17.7138C31.0502 17.7125 31.2079 17.7781 31.3303 17.8982C31.4526 18.0182 31.5309 18.1842 31.5502 18.3644C31.5491 18.3699 31.5491 18.3755 31.5502 18.381C31.5502 18.4406 31.5502 18.5051 31.5502 18.5743C31.5565 18.885 31.4923 19.1925 31.3634 19.4682C31.2946 19.611 31.1934 19.7312 31.0698 19.8169C30.9463 19.9027 30.8047 19.9508 30.6592 19.9567C30.65 19.9572 30.6407 19.9557 30.632 19.9523C30.6233 19.9488 30.6154 19.9434 30.6086 19.9364C30.6018 19.9294 30.5963 19.921 30.5925 19.9116C30.5887 19.9023 30.5866 19.8921 30.5864 19.8818C30.5863 19.8608 30.5934 19.8406 30.6062 19.8251C30.6191 19.8097 30.6367 19.8003 30.6555 19.7987C30.7778 19.7943 30.8967 19.7535 30.9999 19.6803C31.1031 19.6072 31.1867 19.5044 31.242 19.383C31.3124 19.2436 31.3605 19.0917 31.3839 18.934C31.3217 19.0127 31.2449 19.0755 31.1588 19.1182C31.0728 19.1609 30.9794 19.1824 30.8852 19.1813C30.7094 19.1813 30.5407 19.1036 30.4163 18.9652C30.292 18.8268 30.2221 18.6391 30.2221 18.4434C30.2221 18.2477 30.292 18.06 30.4163 17.9216C30.5407 17.7832 30.7094 17.7054 30.8852 17.7054L30.8871 17.7138ZM31.4157 18.4496C31.4161 18.3336 31.3855 18.2201 31.3278 18.1234C31.2702 18.0267 31.188 17.9513 31.0918 17.9066C30.9956 17.8619 30.8896 17.85 30.7873 17.8724C30.685 17.8947 30.591 17.9504 30.5172 18.0323C30.4433 18.1142 30.393 18.2186 30.3725 18.3324C30.352 18.4462 30.3623 18.5641 30.4021 18.6714C30.442 18.7786 30.5095 18.8703 30.5961 18.9348C30.6828 18.9993 30.7847 19.0337 30.889 19.0337C30.9581 19.0343 31.0267 19.0196 31.0907 18.9904C31.1547 18.9613 31.2129 18.9183 31.2619 18.864C31.3108 18.8097 31.3497 18.7451 31.3761 18.674C31.4025 18.6028 31.4159 18.5266 31.4157 18.4496Z" fill="#D0D0D0"/>
<path d="M32.0676 18.8321C32.0605 18.5556 32.1253 18.2827 32.2544 18.0463C32.3033 17.9451 32.3759 17.8605 32.4645 17.8016C32.5532 17.7426 32.6545 17.7115 32.7577 17.7115C32.861 17.7115 32.9623 17.7426 33.051 17.8016C33.1396 17.8605 33.2122 17.9451 33.2611 18.0463C33.3893 18.2824 33.4571 18.5531 33.4571 18.829C33.4571 19.1048 33.3893 19.3755 33.2611 19.6116C33.215 19.7165 33.1434 19.8048 33.0544 19.8667C32.9654 19.9285 32.8626 19.9612 32.7577 19.9612C32.6528 19.9612 32.55 19.9285 32.461 19.8667C32.3721 19.8048 32.3004 19.7165 32.2544 19.6116C32.1252 19.3776 32.0603 19.1066 32.0676 18.8321ZM32.2095 18.8321C32.2051 19.0769 32.2641 19.3179 32.3795 19.5264C32.4144 19.6073 32.4691 19.6756 32.5373 19.7234C32.6056 19.7712 32.6846 19.7966 32.7652 19.7966C32.8459 19.7966 32.9249 19.7712 32.9931 19.7234C33.0614 19.6756 33.1161 19.6073 33.1509 19.5264C33.2646 19.3169 33.3247 19.0768 33.3247 18.8321C33.3247 18.5873 33.2646 18.3473 33.1509 18.1378C33.1159 18.0574 33.0612 17.9897 32.9931 17.9422C32.9251 17.8948 32.8464 17.8697 32.7661 17.8697C32.6859 17.8697 32.6072 17.8948 32.5392 17.9422C32.4711 17.9897 32.4164 18.0574 32.3814 18.1378C32.265 18.345 32.2059 18.5857 32.2114 18.83L32.2095 18.8321Z" fill="#D0D0D0"/>
<path d="M34.3912 17.932L34.1073 18.117C34.0973 18.1249 34.0858 18.1299 34.0736 18.1316C34.0612 18.1316 34.0489 18.128 34.0381 18.121C34.0272 18.1141 34.0183 18.1041 34.012 18.0921C34.0068 18.0834 34.0033 18.0736 34.0018 18.0633C34.0004 18.053 34.0009 18.0425 34.0033 18.0324C34.0058 18.0224 34.0102 18.013 34.0162 18.005C34.0222 17.997 34.0297 17.9906 34.0382 17.9861L34.4248 17.7221C34.4411 17.7127 34.4599 17.7105 34.4775 17.7159C34.4952 17.7213 34.5104 17.7339 34.5201 17.7512C34.5295 17.7686 34.5328 17.7894 34.5294 17.8094V19.8673C34.5294 19.8877 34.5221 19.9073 34.5092 19.9217C34.4962 19.9361 34.4786 19.9442 34.4603 19.9442C34.442 19.9442 34.4244 19.9361 34.4114 19.9217C34.3985 19.9073 34.3912 19.8877 34.3912 19.8673V17.932Z" fill="#D0D0D0"/>
<path d="M35.0281 19.8049L35.962 18.8591C36.0393 18.781 36.0935 18.6787 36.1175 18.5656C36.1416 18.4526 36.1343 18.3341 36.0967 18.2257C36.0592 18.1173 35.993 18.0241 35.9069 17.9583C35.8209 17.8926 35.719 17.8573 35.6146 17.8572C35.4853 17.8571 35.3604 17.9096 35.2634 18.0048L35.1663 18.1046C35.16 18.1122 35.1524 18.1183 35.1438 18.1224C35.1353 18.1266 35.1261 18.1287 35.1168 18.1287C35.1075 18.1287 35.0983 18.1266 35.0898 18.1224C35.0813 18.1183 35.0736 18.1122 35.0673 18.1046C35.0605 18.0977 35.0551 18.0894 35.0513 18.0801C35.0476 18.0708 35.0457 18.0607 35.0457 18.0505C35.0457 18.0403 35.0476 18.0302 35.0513 18.0209C35.0551 18.0116 35.0605 18.0033 35.0673 17.9965L35.1644 17.8925C35.2869 17.7713 35.445 17.704 35.609 17.7034C35.7826 17.7039 35.949 17.7806 36.072 17.9168C36.1951 18.053 36.265 18.2377 36.2665 18.4309C36.2669 18.5332 36.2482 18.6344 36.2116 18.7282C36.1749 18.822 36.1211 18.9062 36.0535 18.9755L35.2485 19.7883H36.2011C36.2104 19.7886 36.2196 19.7909 36.2281 19.7951C36.2366 19.7993 36.2443 19.8054 36.2507 19.8129C36.2572 19.8204 36.2622 19.8293 36.2655 19.839C36.2689 19.8487 36.2705 19.859 36.2702 19.8694C36.2697 19.8896 36.2623 19.9089 36.2494 19.9232C36.2366 19.9375 36.2193 19.9458 36.2011 19.9463H35.0692C35.0595 19.9472 35.0497 19.9456 35.0406 19.9416C35.0316 19.9377 35.0234 19.9314 35.0169 19.9234C35.0045 19.906 34.9987 19.8838 35.0008 19.8616C35.0029 19.8395 35.0127 19.8191 35.0281 19.8049Z" fill="#D0D0D0"/>
<path d="M39.6641 17.8302L39.1448 18.4268C39.2996 18.4595 39.439 18.5517 39.5388 18.6874C39.6385 18.8231 39.6921 18.9936 39.6902 19.1688C39.6911 19.2689 39.6738 19.3681 39.6395 19.4606C39.6051 19.5531 39.5544 19.637 39.4904 19.7072C39.4273 19.7781 39.3523 19.8344 39.2695 19.8728C39.1868 19.9112 39.0981 19.931 39.0085 19.931C38.9188 19.931 38.8301 19.9112 38.7474 19.8728C38.6647 19.8344 38.5896 19.7781 38.5266 19.7072C38.5199 19.6999 38.5146 19.6911 38.511 19.6815C38.5074 19.6719 38.5055 19.6615 38.5055 19.6511C38.5055 19.6407 38.5074 19.6303 38.511 19.6207C38.5146 19.6111 38.5199 19.6023 38.5266 19.595C38.533 19.5873 38.5408 19.5812 38.5495 19.577C38.5582 19.5728 38.5675 19.5707 38.577 19.5707C38.5864 19.5707 38.5958 19.5728 38.6045 19.577C38.6131 19.5812 38.621 19.5873 38.6274 19.595C38.7272 19.7038 38.8613 19.765 39.001 19.7654C39.1407 19.7629 39.2743 19.7012 39.3746 19.5929C39.4485 19.509 39.4988 19.4029 39.5193 19.2877C39.5397 19.1724 39.5295 19.053 39.4898 18.9441C39.4501 18.8353 39.3827 18.7417 39.2959 18.6749C39.209 18.608 39.1065 18.5709 39.001 18.5681C38.9898 18.5687 38.9786 18.5662 38.9685 18.5607C38.9584 18.5553 38.9496 18.5471 38.9431 18.5369C38.9295 18.5217 38.9219 18.5012 38.9219 18.4798C38.9219 18.4583 38.9295 18.4378 38.9431 18.4226L39.4418 17.8468H38.6722C38.6628 17.8471 38.6533 17.8452 38.6445 17.8414C38.6357 17.8375 38.6276 17.8318 38.6209 17.8244C38.6141 17.817 38.6087 17.8082 38.605 17.7985C38.6013 17.7888 38.5994 17.7784 38.5994 17.7678C38.5992 17.7573 38.6008 17.7468 38.6043 17.7369C38.6077 17.7271 38.6129 17.7182 38.6195 17.7106C38.6261 17.703 38.634 17.697 38.6428 17.6929C38.6515 17.6888 38.6609 17.6867 38.6704 17.6867H39.6043C39.6138 17.6865 39.6232 17.6883 39.632 17.6921C39.6409 17.696 39.6489 17.7018 39.6557 17.7091C39.6625 17.7165 39.6679 17.7253 39.6716 17.735C39.6753 17.7447 39.6772 17.7552 39.6772 17.7657C39.6803 17.7772 39.6803 17.7895 39.6772 17.8011C39.6761 17.8122 39.6715 17.8226 39.6641 17.8302Z" fill="#D0D0D0"/>
<path d="M41.3638 19.464H40.2656C40.2579 19.4653 40.25 19.4647 40.2426 19.4621C40.2352 19.4596 40.2283 19.4553 40.2226 19.4495C40.2152 19.4434 40.209 19.4357 40.2044 19.4268C40.1999 19.4178 40.197 19.408 40.1962 19.3978C40.1953 19.3876 40.1963 19.3773 40.1993 19.3675C40.2022 19.3578 40.207 19.3489 40.2133 19.3414L41.3751 17.7241C41.3805 17.7159 41.3875 17.709 41.3955 17.7039C41.4035 17.6988 41.4124 17.6957 41.4215 17.6947C41.4307 17.6937 41.44 17.6949 41.4487 17.6982C41.4574 17.7015 41.4654 17.7068 41.4722 17.7137C41.482 17.7251 41.4896 17.7385 41.4946 17.7532C41.4946 17.7532 41.4946 17.7532 41.4946 17.7657V17.7761V19.3123H41.6291C41.6474 19.3123 41.665 19.3204 41.678 19.3348C41.6909 19.3492 41.6982 19.3688 41.6982 19.3892C41.6982 19.4096 41.6909 19.4292 41.678 19.4436C41.665 19.458 41.6474 19.4661 41.6291 19.4661H41.4946V19.8507C41.4946 19.8609 41.4927 19.8711 41.4892 19.8806C41.4856 19.8901 41.4803 19.8986 41.4737 19.9058C41.4671 19.913 41.4592 19.9186 41.4506 19.9223C41.442 19.9261 41.4328 19.9279 41.4236 19.9276C41.4054 19.9271 41.3881 19.9188 41.3753 19.9045C41.3624 19.8902 41.355 19.8709 41.3545 19.8507L41.3638 19.464ZM41.3638 19.3102V17.9985L40.4056 19.3206L41.3638 19.3102Z" fill="#D0D0D0"/>
<path d="M42.1577 19.701C42.1511 19.6936 42.1458 19.6849 42.1422 19.6753C42.1386 19.6656 42.1367 19.6553 42.1367 19.6449C42.1367 19.6344 42.1386 19.6241 42.1422 19.6145C42.1458 19.6048 42.1511 19.5961 42.1577 19.5887C42.1717 19.5735 42.1905 19.565 42.21 19.565C42.2296 19.565 42.2484 19.5735 42.2623 19.5887C42.3121 19.6442 42.3712 19.6882 42.4363 19.7182C42.5013 19.7482 42.5711 19.7636 42.6415 19.7636C42.7119 19.7636 42.7817 19.7482 42.8467 19.7182C42.9118 19.6882 42.9709 19.6442 43.0207 19.5887C43.0703 19.5345 43.1097 19.4698 43.1366 19.3984C43.1636 19.327 43.1775 19.2504 43.1776 19.173C43.1786 19.0943 43.1654 19.0163 43.1388 18.9434C43.1122 18.8705 43.0728 18.8043 43.0228 18.7487C42.9728 18.693 42.9133 18.6491 42.8478 18.6195C42.7823 18.59 42.7122 18.5753 42.6415 18.5764C42.5718 18.577 42.503 18.5929 42.4389 18.6233C42.3748 18.6536 42.3167 18.6977 42.2679 18.7531C42.2616 18.7611 42.2539 18.7674 42.2452 18.7718C42.2365 18.7762 42.227 18.7784 42.2175 18.7784C42.208 18.7784 42.1985 18.7762 42.1898 18.7718C42.1811 18.7674 42.1734 18.7611 42.1671 18.7531C42.1584 18.7475 42.1518 18.7386 42.1484 18.7282C42.1477 18.7247 42.1477 18.7212 42.1484 18.7178C42.1464 18.7096 42.1464 18.701 42.1484 18.6928C42.1484 18.6928 42.1484 18.6824 42.1484 18.6762L42.2436 17.7719C42.2437 17.7607 42.2463 17.7497 42.2512 17.7399C42.2561 17.7301 42.2631 17.7218 42.2717 17.7158C42.2777 17.7089 42.285 17.7035 42.293 17.6999C42.3011 17.6963 42.3097 17.6947 42.3184 17.695H43.2523C43.2627 17.6932 43.2733 17.6938 43.2835 17.697C43.2937 17.7002 43.3031 17.7057 43.3111 17.7133C43.3192 17.721 43.3256 17.7304 43.33 17.7411C43.3345 17.7517 43.3368 17.7633 43.3368 17.7751C43.3368 17.7868 43.3345 17.7984 43.33 17.8091C43.3256 17.8197 43.3192 17.8292 43.3111 17.8368C43.3031 17.8444 43.2937 17.85 43.2835 17.8531C43.2733 17.8563 43.2627 17.857 43.2523 17.8551H42.3763L42.3053 18.5224C42.4084 18.4549 42.5258 18.4189 42.6454 18.4183C42.7651 18.4176 42.8828 18.4521 42.9865 18.5184C43.0903 18.5847 43.1765 18.6804 43.2362 18.7957C43.296 18.911 43.3274 19.0419 43.327 19.1751C43.3283 19.2749 43.3116 19.3739 43.2779 19.4664C43.2443 19.5589 43.1942 19.6429 43.1309 19.7135C43.0018 19.855 42.8282 19.9348 42.6471 19.9359C42.5555 19.9353 42.465 19.9142 42.3809 19.8739C42.2969 19.8335 42.2209 19.7747 42.1577 19.701Z" fill="#D0D0D0"/>
<path d="M44.0722 18.1669C44.1395 18.0226 44.2403 17.901 44.3642 17.8147C44.488 17.7285 44.6303 17.6807 44.7764 17.6763C44.7946 17.6763 44.8121 17.6841 44.8253 17.698C44.8385 17.7119 44.8464 17.7309 44.8474 17.7512C44.8479 17.772 44.8412 17.7922 44.8287 17.8077C44.8162 17.8232 44.7988 17.8327 44.7801 17.8343C44.6578 17.8387 44.5389 17.8796 44.4357 17.9527C44.3325 18.0259 44.2489 18.1286 44.1936 18.2501C44.1244 18.3902 44.0759 18.5418 44.0498 18.6991C44.1516 18.5701 44.2905 18.4846 44.4428 18.4573C44.5951 18.4301 44.7511 18.4628 44.8841 18.5497C45.017 18.6367 45.1186 18.7726 45.1713 18.9339C45.224 19.0952 45.2245 19.2719 45.1727 19.4336C45.1209 19.5953 45.0202 19.7318 44.8877 19.8197C44.7552 19.9076 44.5994 19.9414 44.4469 19.9152C44.2945 19.8891 44.1551 19.8046 44.0526 19.6763C43.9501 19.548 43.891 19.384 43.8854 19.2125C43.8826 19.1634 43.8826 19.114 43.8854 19.0649C43.8789 18.7529 43.9431 18.444 44.0722 18.1669ZM44.0255 19.1896C44.0243 19.2035 44.0243 19.2174 44.0255 19.2312C44.0266 19.2388 44.0266 19.2465 44.0255 19.2541C44.0345 19.407 44.0965 19.55 44.1985 19.653C44.3005 19.7559 44.4345 19.8106 44.5721 19.8057C44.7098 19.8007 44.8402 19.7363 44.936 19.6262C45.0318 19.5161 45.0853 19.3689 45.0853 19.2156C45.0853 19.0624 45.0318 18.9151 44.936 18.805C44.8402 18.6949 44.7098 18.6306 44.5721 18.6256C44.4345 18.6206 44.3005 18.6753 44.1985 18.7783C44.0965 18.8812 44.0345 19.0242 44.0255 19.1772V19.1896Z" fill="#D0D0D0"/>
<path d="M31.5974 23.7953L14.0341 23.8465L14.0364 24.8068L31.5997 24.7557L31.5974 23.7953Z" fill="#D0D0D0"/>
<path d="M26.4715 25.945L14.0373 25.9813L14.0396 26.9416L26.4738 26.9054L26.4715 25.945Z" fill="#D0D0D0"/>
<path d="M37.9289 7.71057L29.1706 7.73608L29.1729 8.69644L37.9312 8.67092L37.9289 7.71057Z" fill="#D0D0D0"/>
<path d="M48.9491 10.3011H9.85138V31.6265H48.9491V10.3011Z" fill="#00B140"/>
<path opacity="0.2" d="M48.9491 10.3011H9.85138V31.6265H48.9491V10.3011Z" fill="#141414"/>
<path d="M48.9491 14.0905H9.85138V35.416H48.9491V14.0905Z" fill="#00B140"/>
<path opacity="0.3" d="M48.9491 14.0905H9.85138V35.416H48.9491V14.0905Z" fill="#141414"/>
<path d="M48.9491 17.9985H9.85138V35.4181H48.9491V17.9985Z" fill="#00B140"/>
<path opacity="0.2" d="M48.9491 17.9985H9.85138V35.4181H48.9491V17.9985Z" fill="#141414"/>
<path d="M47.7425 43.5394C47.7425 44.154 47.1933 44.6231 46.5863 44.5271L7.8504 38.3995C7.36448 38.3226 7.00665 37.9037 7.00665 37.4118V2.75099C7.00665 2.07545 7.79268 1.70451 8.31415 2.13396C8.9415 2.65338 9.68271 2.97572 10.4603 3.0673L46.8606 7.3963C47.3637 7.45612 47.7425 7.88269 47.7425 8.3893V43.5394Z" fill="#00B140"/>
<path d="M42.4902 28.5355C43.3866 28.5355 44.1134 27.6142 44.1134 26.4776C44.1134 25.341 43.3866 24.4197 42.4902 24.4197C41.5937 24.4197 40.867 25.341 40.867 26.4776C40.867 27.6142 41.5937 28.5355 42.4902 28.5355Z" fill="#D0D0D0"/>
<path d="M43.2467 26.4776C43.228 26.6393 43.1678 26.7917 43.0733 26.9163C42.9788 27.041 42.854 27.1327 42.7139 27.1804C42.5737 27.2282 42.4242 27.2299 42.2832 27.1855C42.1422 27.1411 42.0157 27.0523 41.9188 26.9299C41.822 26.8075 41.7589 26.6566 41.7372 26.4953C41.7154 26.334 41.7359 26.1692 41.7962 26.0205C41.8565 25.8719 41.9541 25.7457 42.0771 25.6572C42.2002 25.5686 42.3436 25.5215 42.4902 25.5214C42.7042 25.5374 42.9037 25.6469 43.0454 25.826C43.1872 26.0052 43.2595 26.2393 43.2467 26.4776Z" fill="#D0D0D0"/>
</svg>
