<svg width="112" height="30" viewBox="0 0 112 30" fill="none" xmlns="http://www.w3.org/2000/svg">
<path d="M7.71578 22.9214C6.51185 22.9214 5.46065 22.1063 5.16086 20.9403L0.700477 3.59199C0.345614 2.21179 1.38796 0.867554 2.81305 0.867554V0.867554C3.84178 0.867554 4.73068 1.58631 4.94601 2.59225L7.83963 16.1098C7.84978 16.1572 7.89168 16.1911 7.94017 16.1911V16.1911C7.98785 16.1911 8.02927 16.1583 8.04023 16.1119L11.1903 2.77347C11.4541 1.65657 12.4511 0.867554 13.5988 0.867554V0.867554C14.7474 0.867554 15.745 1.65789 16.0078 2.77604L19.1487 16.1395C19.1603 16.1887 19.2041 16.2234 19.2546 16.2234V16.2234C19.3059 16.2234 19.3503 16.1875 19.361 16.1373L22.2543 2.59287C22.4692 1.58667 23.3582 0.867554 24.3871 0.867554V0.867554C25.8119 0.867554 26.8541 2.21156 26.4993 3.59154L22.039 20.9396C21.7391 22.106 20.6875 22.9214 19.4832 22.9214V22.9214C18.2831 22.9214 17.2342 22.1116 16.9303 20.9506L13.692 8.57726C13.6805 8.53316 13.6406 8.5024 13.595 8.5024V8.5024C13.5494 8.5024 13.5095 8.53319 13.498 8.57732L10.2683 20.9497C9.96509 22.1111 8.9161 22.9214 7.71578 22.9214V22.9214Z" fill="#141414"/>
<path d="M32.5512 23.2416C31.603 23.2416 30.7579 23.0585 30.0161 22.6924C29.2743 22.3191 28.6872 21.7699 28.255 21.0448C27.8293 20.3125 27.6164 19.4008 27.6164 18.3096C27.6164 17.3907 27.768 16.619 28.0712 15.9944C28.3744 15.3698 28.7872 14.8673 29.3097 14.4868C29.8322 14.1063 30.4257 13.8192 31.0901 13.6253C31.761 13.4315 32.4642 13.2951 33.1996 13.2161C34.064 13.1156 34.7606 13.0223 35.2896 12.9361C35.8186 12.8428 36.2024 12.7064 36.4411 12.5269C36.6797 12.3475 36.7991 12.0818 36.7991 11.7301V11.6655C36.7991 10.9835 36.6056 10.4558 36.2185 10.0825C35.8379 9.70919 35.2961 9.52253 34.5929 9.52253C33.8511 9.52253 33.2608 9.7056 32.8222 10.0717V10.0717C32.0898 10.6711 31.2511 11.3653 30.3085 11.2801V11.2801C29.1535 11.1757 28.2957 10.0603 28.8849 9.0614C29.0048 8.85816 29.1367 8.66369 29.2807 8.47799C29.8484 7.73856 30.5805 7.17142 31.4772 6.77657C32.3803 6.37455 33.4253 6.17354 34.6123 6.17354C35.438 6.17354 36.2282 6.28122 36.9829 6.49659C37.7441 6.71196 38.4182 7.04578 39.0052 7.49806C39.5987 7.95034 40.0664 8.53183 40.4083 9.24255C40.7502 9.94609 40.9211 10.7896 40.9211 11.7731V20.9747C40.9211 22.0542 40.046 22.9293 38.9665 22.9293H38.1588C37.5254 22.9293 37.012 22.4158 37.012 21.7824V20.7064C37.012 20.6673 36.9803 20.6356 36.9411 20.6356V20.6356C36.9135 20.6356 36.8885 20.6517 36.8767 20.6766C36.6401 21.1766 36.3272 21.6188 35.9379 22.0032C35.538 22.3909 35.0574 22.696 34.4962 22.9185C33.9349 23.1339 33.2866 23.2416 32.5512 23.2416ZM33.7317 20.0756C34.3381 20.0756 34.8735 19.9428 35.338 19.6772C35.8024 19.4044 36.1669 19.0383 36.4314 18.5788C36.6959 18.1194 36.8281 17.5989 36.8281 17.0174V15.8557C36.8281 15.6083 36.5295 15.4389 36.2959 15.5206V15.5206C36.0766 15.5924 35.8282 15.6606 35.5509 15.7252C35.2735 15.7826 34.9961 15.8364 34.7187 15.8867C34.4413 15.9298 34.1897 15.9693 33.964 16.0052C33.4802 16.0841 33.0576 16.2098 32.6964 16.382C32.3351 16.5543 32.0545 16.7877 31.8546 17.082C31.6546 17.3692 31.5546 17.7281 31.5546 18.1588C31.5546 18.7834 31.7578 19.2608 32.1642 19.5911C32.5771 19.9141 33.0996 20.0756 33.7317 20.0756Z" fill="#141414"/>
<path d="M48.7861 13.3669V20.8683C48.7861 22.0065 47.8633 22.9293 46.7251 22.9293V22.9293C45.5868 22.9293 44.664 22.0065 44.664 20.8683V8.35317C44.664 7.26834 45.5435 6.38891 46.6283 6.38891H47.1334C47.9393 6.38891 48.5926 7.04218 48.5926 7.84804V9.2056C48.5926 9.26169 48.638 9.30716 48.6941 9.30716V9.30716C48.7376 9.30716 48.7761 9.27946 48.7907 9.23856C49.1222 8.30893 49.6658 7.57083 50.4214 7.02425C51.1955 6.45711 52.134 6.17354 53.2371 6.17354C54.2692 6.17354 55.1691 6.4248 55.9368 6.92733C56.7044 7.42986 57.3011 8.14776 57.7269 9.08102C58.1526 10.0071 58.3655 11.1127 58.3655 12.3977V20.8683C58.3655 22.0065 57.4427 22.9293 56.3045 22.9293V22.9293C55.1662 22.9293 54.2434 22.0065 54.2434 20.8683V13.2161C54.2499 12.2039 54.0177 11.4142 53.5468 10.8471C53.0759 10.2727 52.4275 9.98558 51.6019 9.98558C51.0471 9.98558 50.5568 10.1184 50.1311 10.384C49.7118 10.6496 49.3828 11.0373 49.1441 11.547C48.9119 12.0495 48.7925 12.6562 48.7861 13.3669Z" fill="#141414"/>
<path d="M68.8551 29.4765C67.5198 29.4765 66.3748 29.2719 65.4201 28.8627C64.4718 28.4607 63.7171 27.9115 63.1559 27.2151C63.0575 27.0931 62.9653 26.9685 62.879 26.8412C62.2211 25.8702 63.0296 24.7228 64.1895 24.5492L64.8023 24.4574C65.4248 24.3642 66.0116 24.7495 66.4264 25.223V25.223C66.678 25.5101 67.0102 25.7398 67.423 25.9121C67.8423 26.0916 68.3519 26.1814 68.9519 26.1814C69.8485 26.1814 70.5871 25.9373 71.1677 25.4491C71.7547 24.9681 72.0482 24.1605 72.0482 23.0262V20.1038C72.0482 20.0466 72.0019 20.0003 71.9446 20.0003V20.0003C71.9021 20.0003 71.8639 20.0264 71.8477 20.0657C71.6674 20.501 71.4053 20.9135 71.0613 21.3032C70.7 21.7124 70.2356 22.0463 69.6679 22.3047C69.1002 22.5631 68.4229 22.6924 67.6359 22.6924C66.5199 22.6924 65.5039 22.4052 64.5879 21.8309C63.6784 21.2494 62.9527 20.3628 62.4108 19.1711C61.8754 17.9722 61.6077 16.4574 61.6077 14.6268C61.6077 12.7531 61.8818 11.1881 62.4301 9.93173C62.9785 8.67541 63.7074 7.73497 64.617 7.1104C65.533 6.48582 66.5361 6.17354 67.6262 6.17354C68.4584 6.17354 69.1551 6.33148 69.7163 6.64735C70.2775 6.95605 70.7291 7.34371 71.0709 7.81035C71.4045 8.25027 71.6641 8.68361 71.8498 9.11037C71.8647 9.14471 71.8984 9.16717 71.9359 9.16717V9.16717C71.9872 9.16717 72.0289 9.12553 72.0289 9.07416V7.77804C72.0289 7.01084 72.6508 6.38891 73.418 6.38891H74.0754C75.2056 6.38891 76.1219 7.30516 76.1219 8.43541V23.0908C76.1219 24.4979 75.8123 25.6752 75.193 26.6229C74.5737 27.5705 73.7158 28.2812 72.6191 28.755C71.529 29.236 70.2743 29.4765 68.8551 29.4765ZM68.9422 19.2465C69.6066 19.2465 70.1678 19.0634 70.6258 18.6973C71.0903 18.324 71.4451 17.7927 71.6902 17.1035C71.9418 16.4072 72.0676 15.5744 72.0676 14.6053C72.0676 13.6361 71.945 12.7961 71.6999 12.0854C71.4548 11.3675 71.1 10.8112 70.6355 10.4163C70.1711 10.0215 69.6066 9.82405 68.9422 9.82405C68.2649 9.82405 67.694 10.0286 67.2295 10.4379C66.7651 10.8399 66.4135 11.3998 66.1748 12.1177C65.9361 12.8356 65.8168 13.6648 65.8168 14.6053C65.8168 15.5601 65.9361 16.3856 66.1748 17.082C66.4199 17.7712 66.7715 18.306 67.2295 18.6865C67.694 19.0598 68.2649 19.2465 68.9422 19.2465Z" fill="#141414"/>
<path d="M82.1194 22.9293C80.9624 22.9293 80.0245 21.9914 80.0245 20.8344V2.97034C80.0245 1.81336 80.9624 0.875451 82.1194 0.875451V0.875451C83.2763 0.875451 84.2143 1.81336 84.2143 2.97034V10.426C84.2143 10.5217 84.2919 10.5994 84.3876 10.5994V10.5994C84.4429 10.5994 84.4948 10.5731 84.5275 10.5285L91.0045 1.69682C91.3831 1.18049 91.9851 0.875451 92.6254 0.875451V0.875451C94.2787 0.875451 95.2251 2.76023 94.2376 4.08624L91.138 8.24838C90.0124 9.75984 89.9186 11.8038 90.9011 13.4119L94.7331 19.6839C95.6015 21.1054 94.5785 22.9293 92.9127 22.9293V22.9293C92.1627 22.9293 91.4678 22.5354 91.0825 21.8918L87.7409 16.3103C87.0443 15.1468 85.3877 15.068 84.5838 16.1601V16.1601C84.3437 16.4861 84.2143 16.8804 84.2143 17.2853V20.8344C84.2143 21.9914 83.2763 22.9293 82.1194 22.9293V22.9293Z" fill="#141414"/>
<path d="M107.878 15.8867V8.44993C107.878 7.31166 108.801 6.38891 109.939 6.38891V6.38891C111.077 6.38891 112 7.31166 112 8.44993V20.9505C112 22.0433 111.114 22.9293 110.021 22.9293H109.545C108.715 22.9293 108.042 22.2567 108.042 21.4271V20.0153C108.042 19.9654 108.002 19.9249 107.952 19.9249V19.9249C107.913 19.9249 107.879 19.9494 107.866 19.9857C107.529 20.9267 106.978 21.6853 106.214 22.2616C105.44 22.8503 104.495 23.1446 103.379 23.1446C102.385 23.1446 101.511 22.8934 100.756 22.3909C100.002 21.8883 99.4113 21.174 98.9856 20.2479C98.5663 19.3218 98.3534 18.2127 98.3469 16.9205V8.44992C98.3469 7.31166 99.2697 6.38891 100.408 6.38891V6.38891C101.546 6.38891 102.469 7.31166 102.469 8.44992V16.1021C102.475 17.0784 102.711 17.8501 103.175 18.4173C103.64 18.9844 104.262 19.268 105.043 19.268C105.54 19.268 106.004 19.1424 106.436 18.8911C106.868 18.6327 107.217 18.2522 107.481 17.7496C107.752 17.2471 107.884 16.6261 107.878 15.8867Z" fill="#141414"/>
</svg>
