<svg width="197" height="202" viewBox="0 0 197 202" fill="none" xmlns="http://www.w3.org/2000/svg">
<path d="M83.3477 161.142V145.465H91.1792V137.579H83.3751C83.3751 134.959 83.3751 132.326 83.3751 129.706H99.0794V121.875H106.925V129.665H114.797V113.92H138.388V121.751H146.192V113.92H138.361V106.019H122.629V90.4111H99.0245V98.2564H83.3751V113.988H91.1655V121.833H83.3339V129.692H75.4887V121.82H51.9117V113.988H75.4887V51.0613H83.3751C83.3751 58.6322 83.3751 66.2032 83.3751 73.7742V74.6246H91.2341V58.9477H99.0657V74.652H106.966V82.4835H146.274V90.3288H154.147V98.2427H146.316V106.129H154.12V121.875H162.006V137.593H154.202V153.283H161.896V161.142H177.601V168.987H154.12V184.692H146.274V176.846H130.502V168.987H122.656V161.142H138.306V153.283H99.0931V161.101H83.3477V161.142ZM130.502 137.551V129.734H122.698V137.538H130.529V145.369H146.192V137.551H130.502ZM114.756 137.551H107.034V145.328H114.811L114.756 137.551ZM130.543 98.1467H138.319V90.3563H130.543V98.1467Z" fill="#E8E8E8"/>
<path d="M12.5895 74.5979V19.6261H67.5476V74.5979H12.5895ZM20.4759 27.5125V66.7526H59.7023V27.5125H20.4759Z" fill="#E8E8E8"/>
<path d="M177.642 74.6106H122.684V19.6525H177.642V74.6106ZM169.797 27.5115H130.57V66.7379H169.797V27.5115Z" fill="#E8E8E8"/>
<path d="M12.603 129.706H67.5749V184.678H12.603V129.706ZM59.7158 137.592H20.4757V176.832H59.7158V137.592Z" fill="#E8E8E8"/>
<path d="M83.3342 51.0609V35.3292H75.4889V19.6387H114.729V35.3018H107.035V43.1745H114.811V58.8651H106.98V51.0609H99.0796V43.2157H91.2343V51.0335H83.3204L83.3342 51.0609ZM91.2206 35.2744H99.011V27.5114H91.2206V35.2744Z" fill="#E8E8E8"/>
<path d="M51.8705 90.3563V98.2153H67.5747V106.061H44.0252V121.779H12.6166V106.143H20.3933V113.92H36.1662V90.3563H51.8842H51.8705Z" fill="#E8E8E8"/>
<path d="M83.3204 161.129V168.988H91.1794V176.833H99.011V184.692H75.4889V161.143H83.293L83.3204 161.129Z" fill="#E8E8E8"/>
<path d="M36.1662 90.3571H20.4482V98.1887H12.6166V82.553H36.1388V90.3708L36.1662 90.3571Z" fill="#E8E8E8"/>
<path d="M177.642 106.061H169.852V90.3842H162.006V82.5389H177.642V106.061Z" fill="#E8E8E8"/>
<path d="M51.8845 90.3845V82.553H67.5613V90.3571H51.8708L51.8845 90.3845Z" fill="#E8E8E8"/>
<path d="M161.979 121.833V114.002H169.783V121.806H161.896L161.979 121.833Z" fill="#E8E8E8"/>
<path d="M169.865 129.72H177.642V137.511H169.865V129.72Z" fill="#E8E8E8"/>
<path d="M106.925 74.6517V66.8202H114.743V74.6243H106.911L106.925 74.6517Z" fill="#E8E8E8"/>
<path d="M83.3479 145.466H75.4889V137.621H83.293V145.466H83.3479Z" fill="#E8E8E8"/>
<path d="M161.979 153.284V145.466H169.783V153.27H161.979V153.284Z" fill="#E8E8E8"/>
<path d="M154.093 98.2428H161.897V106.088H154.093V98.2017V98.2428Z" fill="#E8E8E8"/>
<path d="M114.743 176.833H106.952V169.056H114.743V176.833Z" fill="#E8E8E8"/>
<path d="M130.502 176.847V184.679H122.698V176.874H130.53L130.502 176.847Z" fill="#E8E8E8"/>
<path d="M177.642 184.706H169.865V176.916H177.642V184.706Z" fill="#E8E8E8"/>
<path d="M114.798 113.919H107.035V106.115H114.852V113.919H114.798Z" fill="#E8E8E8"/>
<path d="M51.8296 58.88H28.3212V35.3716H51.8296V58.88Z" fill="#E8E8E8"/>
<path d="M138.402 58.865V35.3566H161.897V58.865H138.402Z" fill="#E8E8E8"/>
<path d="M28.3212 168.961V145.466H51.8296V168.974L28.3212 168.961Z" fill="#E8E8E8"/>
<path d="M35.4259 1H0.999939V38.9783" stroke="#FFD977" stroke-width="2" stroke-miterlimit="10"/>
<path d="M160.621 1H195.034V38.9783" stroke="#FFD977" stroke-width="2" stroke-miterlimit="10"/>
<path d="M35.4259 201H0.999939V163.022" stroke="#FFD977" stroke-width="2" stroke-miterlimit="10"/>
<path d="M160.621 201H195.034V163.022" stroke="#FFD977" stroke-width="2" stroke-miterlimit="10"/>
</svg>
